<?xml version="1.0" encoding="UTF-8"?>
<svg id="Layer_1" xmlns="http://www.w3.org/2000/svg" version="1.1" viewBox="0 0 200 200">
  <!-- Generator: Adobe Illustrator 29.0.1, SVG Export Plug-In . SVG Version: 2.1.0 Build 192)  -->
  <defs>
    <style>
      .st0 {
        fill: #4f4f4f;
      }

      .st1 {
        opacity: .4;
      }

      .st2 {
        opacity: .3;
      }

      .st3 {
        fill: #4c4c4c;
      }
    </style>
  </defs>
  <g class="st1">
    <path class="st0" d="M90.8,128.6h-28.4c0-1,0-4.5.1-10.5s.1-14.8.1-26.3,0-10.2,0-17.3,0-14.1-.2-21h28.4v5h-21.4c0,6.9-.1,13.1-.1,18.6,0,5.4,0,10.2,0,14.3,0,8.7,0,15.6.1,20.7,0,5.1.1,8.9.1,11.6h21.3v5h0Z"/>
  </g>
  <g class="st1">
    <path class="st0" d="M109.2,123.7h21.3c0-2.7,0-6.6.1-11.6s.1-11.9.1-20.7,0-8.9,0-14.3c0-5.4,0-11.6-.1-18.6h-21.4v-5h28.4c-.1,6.9-.2,13.9-.2,21,0,7.1,0,12.9,0,17.3,0,11.5,0,20.3.1,26.3,0,6,.1,9.6.1,10.5h-28.4v-5h0Z"/>
  </g>
  <g class="st2">
    <g>
      <path class="st3" d="M87.1,69.1v37.7h14.3v5.9h-21.3v-43.7s7.1,0,7.1,0Z"/>
      <path class="st3" d="M101.4,69.1l11.8,27.5v-27.5h7.1v43.7h-7.1l-11.8-27.5v15.6h-7.1v-31.9s7.1,0,7.1,0Z"/>
    </g>
  </g>
</svg>